<?xml version="1.0" encoding="UTF-8" standalone="no"?>
<!DOCTYPE svg PUBLIC "-//W3C//DTD SVG 1.1//EN"
 "http://www.w3.org/Graphics/SVG/1.1/DTD/svg11.dtd">
<!-- Generated by graphviz version 2.38.0 (20140413.2041)
 -->
<!-- Title: G Pages: 1 -->
<svg width="660pt" height="124pt"
 viewBox="0.00 0.00 660.26 123.98" xmlns="http://www.w3.org/2000/svg" xmlns:xlink="http://www.w3.org/1999/xlink">
<g id="graph0" class="graph" transform="scale(1 1) rotate(0) translate(7.992 115.992)">
<title>G</title>
<polygon fill="#000000" stroke="none" points="-7.992,7.992 -7.992,-115.992 652.264,-115.992 652.264,7.992 -7.992,7.992"/>
<!-- index -->
<g id="node1" class="node"><title>index</title>
<ellipse fill="none" stroke="#c6c5fe" cx="322.286" cy="-90" rx="32.4942" ry="18"/>
<text text-anchor="middle" x="322.286" y="-86.3" font-family="Arial" font-size="14.00" fill="#c6c5fe">index</text>
</g>
<!-- ../node_modules/fun&#45;curry/src/index -->
<g id="node2" class="node"><title>../node_modules/fun&#45;curry/src/index</title>
<ellipse fill="none" stroke="#cfffac" cx="157.286" cy="-18" rx="157.072" ry="18"/>
<text text-anchor="middle" x="157.286" y="-14.3" font-family="Arial" font-size="14.00" fill="#cfffac">../node_modules/fun&#45;curry/src/index</text>
</g>
<!-- index&#45;&gt;../node_modules/fun&#45;curry/src/index -->
<g id="edge1" class="edge"><title>index&#45;&gt;../node_modules/fun&#45;curry/src/index</title>
<path fill="none" stroke="#757575" d="M297.226,-78.3685C272.984,-68.084 235.606,-52.2268 205.577,-39.487"/>
<polygon fill="#757575" stroke="#757575" points="206.684,-36.1548 196.111,-35.4713 203.95,-42.5989 206.684,-36.1548"/>
</g>
<!-- ../node_modules/guarded/src/index -->
<g id="node3" class="node"><title>../node_modules/guarded/src/index</title>
<ellipse fill="none" stroke="#cfffac" cx="488.286" cy="-18" rx="155.972" ry="18"/>
<text text-anchor="middle" x="488.286" y="-14.3" font-family="Arial" font-size="14.00" fill="#cfffac">../node_modules/guarded/src/index</text>
</g>
<!-- index&#45;&gt;../node_modules/guarded/src/index -->
<g id="edge2" class="edge"><title>index&#45;&gt;../node_modules/guarded/src/index</title>
<path fill="none" stroke="#757575" d="M347.498,-78.3685C371.887,-68.084 409.491,-52.2268 439.702,-39.487"/>
<polygon fill="#757575" stroke="#757575" points="441.371,-42.5819 449.225,-35.4713 438.651,-36.1319 441.371,-42.5819"/>
</g>
</g>
</svg>
